<svg id="Layer_1" height="512" viewBox="0 0 100 100" width="512" xmlns="http://www.w3.org/2000/svg"><g id="XMLID_455_"><path id="XMLID_467_" d="m83.769043 16.8701172h-7.006836v-7.0141602c0-4.0561523-3.2998047-7.355957-7.3554688-7.355957h-41.0898437c-.6630859 0-1.2988281.2631836-1.7675781.7319336l-16.9462891 16.9370117c-.46875.46875-.7324219 1.1049805-.7324219 1.7680664v53.8408203c0 4.0561523 3.2998047 7.355957 7.3554688 7.355957h7.0136719v7.0063477c0 4.0581055 3.296875 7.3598633 7.3496094 7.3598633h53.1796875c4.0585938 0 7.3603516-3.3017578 7.3603516-7.3598633v-65.9199219c-.0000001-4.0527343-3.3017579-7.3500976-7.3603516-7.3500976zm-57.9521485-5.836853v6.0477905c0 1.2993164-1.0566406 2.355957-2.3554688 2.355957h-6.0527954zm-9.5908203 67.1005249c-1.2988281 0-2.3554688-1.0566406-2.3554688-2.355957v-51.3408204h9.5908203c4.0556641 0 7.3554688-3.2998047 7.3554688-7.355957v-9.5810547h38.5898438c1.2988281 0 2.3554688 1.0566406 2.3554688 2.355957v65.921875c0 1.2993164-1.0566406 2.355957-2.3554688 2.355957h-53.1806641zm69.9033203 12.0063476c0 1.3012695-1.0585938 2.3598633-2.3603516 2.3598633h-53.1796874c-1.2958984 0-2.3496094-1.0585938-2.3496094-2.3598633v-7.0063477h41.1669922c4.0556641 0 7.3554688-3.2998047 7.3554688-7.355957v-53.9077148h7.0068359c1.3017578 0 2.3603516 1.0541992 2.3603516 2.3500977v65.9199218z"/><path id="XMLID_494_" d="m57.1831055 21.6396484h-17.71875c-1.3808594 0-2.5 1.1191406-2.5 2.5s1.1191406 2.5 2.5 2.5h17.71875c1.3808594 0 2.5-1.1191406 2.5-2.5s-1.1191407-2.5-2.5-2.5z"/><path id="XMLID_495_" d="m57.1831055 40.3168945h-28.7333985c-1.3808594 0-2.5 1.1191406-2.5 2.5s1.1191406 2.5 2.5 2.5h28.7333984c1.3808594 0 2.5-1.1191406 2.5-2.5s-1.1191406-2.5-2.4999999-2.5z"/><path id="XMLID_496_" d="m45.2104492 58.9936523h-16.7607422c-1.3808594 0-2.5 1.1191406-2.5 2.5s1.1191406 2.5 2.5 2.5h16.7607422c1.3808594 0 2.5-1.1191406 2.5-2.5s-1.1191406-2.5-2.5-2.5z"/></g></svg>